<mxfile host="Electron" modified="2024-04-26T19:20:06.589Z" agent="Mozilla/5.0 (Windows NT 10.0; Win64; x64) AppleWebKit/537.36 (KHTML, like Gecko) draw.io/22.0.2 Chrome/114.0.5735.289 Electron/25.8.4 Safari/537.36" etag="Gl8TpcUjK8ofywLG6DR8" version="22.0.2" type="device">
  <diagram name="第 1 页" id="TmaJ6JiIrooo1czxaJse">
    <mxGraphModel dx="1434" dy="844" grid="1" gridSize="10" guides="1" tooltips="1" connect="1" arrows="1" fold="1" page="1" pageScale="1" pageWidth="827" pageHeight="1169" math="0" shadow="0">
      <root>
        <mxCell id="0" />
        <mxCell id="1" parent="0" />
        <mxCell id="r951F2XxS567M05ldcKB-5" value="" style="rounded=0;whiteSpace=wrap;html=1;fillColor=#d5e8d4;strokeColor=none;" vertex="1" parent="1">
          <mxGeometry x="120" y="160" width="480" height="120" as="geometry" />
        </mxCell>
        <mxCell id="r951F2XxS567M05ldcKB-6" value="" style="rounded=0;whiteSpace=wrap;html=1;fillColor=#dae8fc;strokeColor=none;" vertex="1" parent="1">
          <mxGeometry x="120" y="280" width="480" height="120" as="geometry" />
        </mxCell>
        <mxCell id="r951F2XxS567M05ldcKB-28" style="edgeStyle=none;shape=connector;rounded=0;orthogonalLoop=1;jettySize=auto;html=1;exitX=0.5;exitY=1;exitDx=0;exitDy=0;entryX=0.5;entryY=0;entryDx=0;entryDy=0;dashed=1;labelBackgroundColor=default;strokeColor=#FF0000;strokeWidth=1.5;align=center;verticalAlign=middle;fontFamily=Helvetica;fontSize=11;fontColor=default;endArrow=none;endFill=0;fillColor=#ffff88;" edge="1" parent="1" source="r951F2XxS567M05ldcKB-7" target="r951F2XxS567M05ldcKB-11">
          <mxGeometry relative="1" as="geometry" />
        </mxCell>
        <mxCell id="r951F2XxS567M05ldcKB-30" style="edgeStyle=none;shape=connector;rounded=0;orthogonalLoop=1;jettySize=auto;html=1;exitX=0.5;exitY=1;exitDx=0;exitDy=0;entryX=0.5;entryY=0;entryDx=0;entryDy=0;labelBackgroundColor=default;strokeColor=default;strokeWidth=1.5;align=center;verticalAlign=middle;fontFamily=Helvetica;fontSize=11;fontColor=default;endArrow=none;endFill=0;" edge="1" parent="1" source="r951F2XxS567M05ldcKB-7" target="r951F2XxS567M05ldcKB-10">
          <mxGeometry relative="1" as="geometry" />
        </mxCell>
        <mxCell id="r951F2XxS567M05ldcKB-7" value="Parallel Scavenge" style="rounded=1;whiteSpace=wrap;html=1;strokeColor=none;" vertex="1" parent="1">
          <mxGeometry x="400" y="200" width="80" height="40" as="geometry" />
        </mxCell>
        <mxCell id="r951F2XxS567M05ldcKB-25" style="edgeStyle=none;shape=connector;rounded=0;orthogonalLoop=1;jettySize=auto;html=1;exitX=0.5;exitY=1;exitDx=0;exitDy=0;entryX=0.5;entryY=0;entryDx=0;entryDy=0;labelBackgroundColor=default;strokeColor=#FFFFFF;align=center;verticalAlign=middle;fontFamily=Helvetica;fontSize=11;fontColor=default;endArrow=none;endFill=0;fillColor=#ffff88;dashed=1;strokeWidth=1.5;" edge="1" parent="1" source="r951F2XxS567M05ldcKB-8" target="r951F2XxS567M05ldcKB-12">
          <mxGeometry relative="1" as="geometry" />
        </mxCell>
        <mxCell id="r951F2XxS567M05ldcKB-29" style="edgeStyle=none;shape=connector;rounded=0;orthogonalLoop=1;jettySize=auto;html=1;exitX=0.5;exitY=1;exitDx=0;exitDy=0;entryX=0.5;entryY=0;entryDx=0;entryDy=0;labelBackgroundColor=default;strokeColor=default;strokeWidth=1.5;align=center;verticalAlign=middle;fontFamily=Helvetica;fontSize=11;fontColor=default;endArrow=none;endFill=0;" edge="1" parent="1" source="r951F2XxS567M05ldcKB-8" target="r951F2XxS567M05ldcKB-11">
          <mxGeometry relative="1" as="geometry" />
        </mxCell>
        <mxCell id="r951F2XxS567M05ldcKB-8" value="Serial" style="rounded=1;whiteSpace=wrap;html=1;strokeColor=none;" vertex="1" parent="1">
          <mxGeometry x="160" y="200" width="80" height="40" as="geometry" />
        </mxCell>
        <mxCell id="r951F2XxS567M05ldcKB-17" style="edgeStyle=none;shape=connector;rounded=0;orthogonalLoop=1;jettySize=auto;html=1;exitX=0.5;exitY=1;exitDx=0;exitDy=0;entryX=0.5;entryY=0;entryDx=0;entryDy=0;labelBackgroundColor=default;strokeColor=default;align=center;verticalAlign=middle;fontFamily=Helvetica;fontSize=11;fontColor=default;endArrow=none;endFill=0;strokeWidth=1.5;" edge="1" parent="1" source="r951F2XxS567M05ldcKB-9" target="r951F2XxS567M05ldcKB-12">
          <mxGeometry relative="1" as="geometry" />
        </mxCell>
        <mxCell id="r951F2XxS567M05ldcKB-27" style="edgeStyle=none;shape=connector;rounded=0;orthogonalLoop=1;jettySize=auto;html=1;exitX=0.5;exitY=1;exitDx=0;exitDy=0;entryX=0.5;entryY=0;entryDx=0;entryDy=0;dashed=1;labelBackgroundColor=default;strokeColor=#FFFFFF;strokeWidth=1.5;align=center;verticalAlign=middle;fontFamily=Helvetica;fontSize=11;fontColor=default;endArrow=none;endFill=0;fillColor=#ffff88;" edge="1" parent="1" source="r951F2XxS567M05ldcKB-9" target="r951F2XxS567M05ldcKB-11">
          <mxGeometry relative="1" as="geometry" />
        </mxCell>
        <mxCell id="r951F2XxS567M05ldcKB-9" value="ParNew" style="rounded=1;whiteSpace=wrap;html=1;strokeColor=none;" vertex="1" parent="1">
          <mxGeometry x="280" y="200" width="80" height="40" as="geometry" />
        </mxCell>
        <mxCell id="r951F2XxS567M05ldcKB-10" value="Parallel Old" style="rounded=1;whiteSpace=wrap;html=1;strokeColor=none;fillColor=#ffe6cc;" vertex="1" parent="1">
          <mxGeometry x="400" y="320" width="80" height="40" as="geometry" />
        </mxCell>
        <mxCell id="r951F2XxS567M05ldcKB-11" value="Serial Old&lt;br&gt;(MSC)" style="rounded=1;whiteSpace=wrap;html=1;strokeColor=none;fillColor=#ffe6cc;" vertex="1" parent="1">
          <mxGeometry x="280" y="350" width="80" height="40" as="geometry" />
        </mxCell>
        <mxCell id="r951F2XxS567M05ldcKB-31" style="edgeStyle=none;shape=connector;rounded=0;orthogonalLoop=1;jettySize=auto;html=1;exitX=0.5;exitY=1;exitDx=0;exitDy=0;entryX=0;entryY=0.5;entryDx=0;entryDy=0;labelBackgroundColor=default;strokeColor=#FFFF00;strokeWidth=1.5;align=center;verticalAlign=middle;fontFamily=Helvetica;fontSize=11;fontColor=default;endArrow=none;endFill=0;" edge="1" parent="1" source="r951F2XxS567M05ldcKB-12" target="r951F2XxS567M05ldcKB-11">
          <mxGeometry relative="1" as="geometry" />
        </mxCell>
        <mxCell id="r951F2XxS567M05ldcKB-12" value="CMS" style="rounded=1;whiteSpace=wrap;html=1;strokeColor=none;fillColor=#ffe6cc;" vertex="1" parent="1">
          <mxGeometry x="160" y="320" width="80" height="40" as="geometry" />
        </mxCell>
        <mxCell id="r951F2XxS567M05ldcKB-13" value="G1" style="rounded=1;whiteSpace=wrap;html=1;strokeColor=none;fillColor=#dae8fc;gradientColor=#7ea6e0;" vertex="1" parent="1">
          <mxGeometry x="500" y="260" width="80" height="40" as="geometry" />
        </mxCell>
        <mxCell id="r951F2XxS567M05ldcKB-32" value="&lt;font color=&quot;#666666&quot;&gt;Young generation&lt;/font&gt;" style="text;html=1;align=center;verticalAlign=middle;resizable=0;points=[];autosize=1;strokeColor=none;fillColor=none;fontSize=11;fontFamily=Helvetica;fontColor=default;" vertex="1" parent="1">
          <mxGeometry x="120" y="160" width="110" height="30" as="geometry" />
        </mxCell>
        <mxCell id="r951F2XxS567M05ldcKB-33" value="&lt;font color=&quot;#666666&quot;&gt;Tenured generation&lt;/font&gt;" style="text;html=1;align=center;verticalAlign=middle;resizable=0;points=[];autosize=1;strokeColor=none;fillColor=none;fontSize=11;fontFamily=Helvetica;fontColor=default;" vertex="1" parent="1">
          <mxGeometry x="120" y="370" width="120" height="30" as="geometry" />
        </mxCell>
        <mxCell id="r951F2XxS567M05ldcKB-34" value="说明（更新至JDK 14）：&lt;br style=&quot;font-size: 14px;&quot;&gt;1.新生代和老年代收集器的任意连线，表示两者可搭配使用。&lt;br style=&quot;font-size: 14px;&quot;&gt;2.当CMS出现“Concurrent Mode Failure”时，Serial Old作为它的后备方案。&lt;br style=&quot;font-size: 14px;&quot;&gt;3.白色虚线的两种组合（Serial + CMS、ParNew + Serial Old），在JDK 8时&lt;br&gt;声明为废弃（JEP 173），并在JDK 9中移除这两种组合（JEP 214）。&lt;br style=&quot;font-size: 14px;&quot;&gt;4.红色虚线的组合（Parallel Scavenge + Serial Old），在JDK 14中废弃（JEP&lt;br&gt;366）。&lt;br style=&quot;font-size: 14px;&quot;&gt;5.在JDK 14中删除了CMS（JEP 363）。" style="text;html=1;align=left;verticalAlign=top;resizable=0;points=[];autosize=1;strokeColor=none;fillColor=none;fontSize=14;fontFamily=Helvetica;fontColor=default;spacing=2;" vertex="1" parent="1">
          <mxGeometry x="120" y="400" width="510" height="150" as="geometry" />
        </mxCell>
      </root>
    </mxGraphModel>
  </diagram>
</mxfile>
